<svg width="51" height="47" viewBox="0 0 51 47" fill="none" xmlns="http://www.w3.org/2000/svg">
<path d="M18.0625 0C15.7887 0 13.8083 1.292 12.5503 3.05575C11.2923 4.8195 10.625 7.0975 10.625 9.5625C10.625 12.0275 11.2923 14.3076 12.5503 16.0714C13.8083 17.8351 15.7887 19.125 18.0625 19.125C20.3363 19.125 22.3167 17.833 23.5747 16.0693C24.8328 14.3055 25.5 12.0275 25.5 9.5625C25.5 7.0975 24.8328 4.81737 23.5747 3.05362C22.3167 1.28987 20.3363 0 18.0625 0ZM25.5 9.5625C25.5 12.0275 26.1672 14.3076 27.4253 16.0714C28.6833 17.8351 30.6659 19.125 32.9375 19.125C35.2113 19.125 37.1917 17.833 38.4497 16.0693C39.7077 14.3055 40.375 12.0275 40.375 9.5625C40.375 7.0975 39.7077 4.81737 38.4497 3.05362C37.1917 1.28987 35.2113 0 32.9375 0C30.6637 0 28.6833 1.292 27.4253 3.05575C26.1672 4.8195 25.5 7.0975 25.5 9.5625ZM18.0625 4.25C18.7255 4.25 19.4565 4.5815 20.1238 5.51225C20.7825 6.44087 21.25 7.91988 21.25 9.5625C21.25 11.2051 20.7825 12.6863 20.1238 13.6128C19.4565 14.5435 18.7255 14.875 18.0625 14.875C17.3995 14.875 16.6685 14.5435 16.0012 13.6128C15.3425 12.6841 14.875 11.2051 14.875 9.5625C14.875 7.91988 15.3425 6.43875 16.0012 5.51225C16.6685 4.5815 17.3995 4.25 18.0625 4.25ZM32.9375 4.25C33.6005 4.25 34.3315 4.5815 34.9987 5.51225C35.6575 6.44087 36.125 7.91988 36.125 9.5625C36.125 11.2051 35.6575 12.6863 34.9987 13.6128C34.3315 14.5435 33.6005 14.875 32.9375 14.875C32.2745 14.875 31.5435 14.5435 30.8763 13.6128C30.2175 12.6841 29.75 11.2051 29.75 9.5625C29.75 7.91988 30.2175 6.43875 30.8763 5.51225C31.5435 4.5815 32.2745 4.25 32.9375 4.25ZM7.4375 14.875C5.16375 14.875 3.18325 16.167 1.92525 17.9307C0.66725 19.6945 0 21.9725 0 24.4375C0 26.9025 0.66725 29.1826 1.92525 30.9464C3.18325 32.7101 5.16375 34 7.4375 34C9.71125 34 11.6917 32.708 12.9497 30.9443C14.2077 29.1805 14.875 26.9025 14.875 24.4375C14.875 21.9725 14.2077 19.6924 12.9497 17.9286C11.6917 16.1649 9.71125 14.875 7.4375 14.875ZM43.5625 14.875C41.2887 14.875 39.3083 16.167 38.0503 17.9307C36.7923 19.6945 36.125 21.9725 36.125 24.4375C36.125 26.9025 36.7923 29.1826 38.0503 30.9464C39.3083 32.7101 41.2887 34 43.5625 34C45.8363 34 47.8167 32.708 49.0747 30.9443C50.3327 29.1805 51 26.9025 51 24.4375C51 21.9725 50.3327 19.6924 49.0747 17.9286C47.8167 16.1649 45.8363 14.875 43.5625 14.875ZM7.4375 19.125C8.1005 19.125 8.8315 19.4565 9.49875 20.3872C10.1575 21.3159 10.625 22.7949 10.625 24.4375C10.625 26.0801 10.1575 27.5613 9.49875 28.4878C8.8315 29.4185 8.1005 29.75 7.4375 29.75C6.7745 29.75 6.0435 29.4185 5.37625 28.4878C4.7175 27.5613 4.25 26.0801 4.25 24.4375C4.25 22.7949 4.7175 21.3137 5.37625 20.3872C6.0435 19.4565 6.7745 19.125 7.4375 19.125ZM43.5625 19.125C44.2255 19.125 44.9565 19.4565 45.6237 20.3872C46.2825 21.3159 46.75 22.7949 46.75 24.4375C46.75 26.0801 46.2825 27.5613 45.6237 28.4878C44.9565 29.4185 44.2255 29.75 43.5625 29.75C42.8995 29.75 42.1685 29.4185 41.5013 28.4878C40.8425 27.5591 40.375 26.0801 40.375 24.4375C40.375 22.7949 40.8425 21.3137 41.5013 20.3872C42.1685 19.4565 42.8995 19.125 43.5625 19.125ZM25.5 23.375C22.6674 23.375 20.6911 25.2131 19.72 26.8281C18.7552 28.4431 18.1602 29.7861 17.595 30.3471C17.2699 30.6807 15.2193 31.4521 13.0815 32.5422C12.0126 33.0884 10.9352 33.8172 10.0279 34.9329C9.11412 36.0485 8.49788 37.5891 8.49788 39.3168C8.49788 43.3968 11.8554 46.7543 15.9354 46.7543C17.7756 46.7543 19.6966 46.1592 21.5773 45.628C23.4664 45.084 25.5 44.625 25.5 44.625C25.5 44.625 27.5336 45.084 29.4185 45.6237C31.3013 46.155 33.2223 46.75 35.0625 46.75C39.1425 46.75 42.5 43.3925 42.5 39.3125C42.5 37.6253 41.8774 36.0825 40.97 34.9987C40.0669 33.9086 38.9789 33.235 37.9185 32.6719C35.7935 31.5456 33.7046 30.6531 33.4029 30.3471C32.8929 29.8435 32.3191 28.4559 31.3416 26.8324C30.3663 25.2025 28.3475 23.375 25.5 23.375ZM25.5 27.625C26.9025 27.625 27.0576 27.965 27.6888 29.019C28.3263 30.0709 28.8023 31.858 30.345 33.4029C32.0981 35.1454 34.3124 35.5279 35.9253 36.3864C36.7327 36.8156 37.349 37.2725 37.7188 37.7145C38.0864 38.1544 38.25 38.556 38.25 39.3082C38.25 41.0932 36.8475 42.4957 35.0625 42.4957C34.4463 42.4957 32.4615 42.0283 30.6128 41.497C28.764 40.9721 27.234 40.3707 25.5 40.3707C23.766 40.3707 22.236 40.9721 20.3872 41.497C18.5385 42.0283 16.5537 42.4957 15.9375 42.4957C14.1525 42.4957 12.75 41.0932 12.75 39.3082C12.75 38.4519 12.9285 38.012 13.2812 37.5785C13.634 37.145 14.2842 36.72 15.0747 36.3184C16.6558 35.5109 18.8573 35.1921 20.6529 33.3965C22.2105 31.8304 22.678 29.9859 23.3091 28.9446C23.9296 27.9034 24.0784 27.6165 25.4979 27.6165L25.5 27.625Z" fill="#665B55"/>
</svg>
