<svg width="50" height="52" viewBox="0 0 50 52" fill="none" xmlns="http://www.w3.org/2000/svg">
<g clip-path="url(#clip0_317_416)">
<path d="M22.1522 2.43646C22.7956 2.43798 23.4386 2.46729 24.0795 2.5243C22.4835 5.31109 21.854 8.54001 22.2876 11.7156C22.7211 14.8912 24.1938 17.8381 26.4796 20.1041C28.7654 22.3701 31.7381 23.8299 34.9415 24.2598C38.145 24.6896 41.4022 24.0655 44.2133 22.4834C44.7205 28.1028 43.0166 33.699 39.458 38.1018L50 48.5499L46.5172 52L35.9777 41.552C32.0561 44.6684 27.1783 46.3634 22.1522 46.3563C9.92419 46.3563 0 36.5183 0 24.3964C0 12.2745 9.92419 2.43646 22.1522 2.43646ZM35.7635 0.777269C35.8558 0.547873 36.0154 0.351187 36.2216 0.212626C36.4278 0.0740658 36.6712 0 36.9203 0C37.1695 0 37.4129 0.0740658 37.6191 0.212626C37.8253 0.351187 37.9849 0.547873 38.0772 0.777269L38.7024 2.26566C39.7472 4.79124 41.7293 6.8234 44.2404 7.94352L46.0077 8.72188C46.2343 8.82523 46.4263 8.99084 46.5609 9.19907C46.6955 9.4073 46.767 9.64943 46.767 9.89674C46.767 10.144 46.6955 10.3862 46.5609 10.5944C46.4263 10.8026 46.2343 10.9682 46.0077 11.0716L44.137 11.8963C41.6889 12.9853 39.7412 14.9441 38.6778 17.3863L38.0698 18.7673C37.9752 18.9922 37.8155 19.1843 37.611 19.3194C37.4065 19.4545 37.1661 19.5266 36.9203 19.5266C36.6746 19.5266 36.4342 19.4545 36.2297 19.3194C36.0252 19.1843 35.8655 18.9922 35.7709 18.7673L35.1654 17.3887C34.1013 14.9447 32.1516 12.9849 29.7012 11.8963L27.8306 11.0716C27.6039 10.9682 27.4119 10.8026 27.2773 10.5944C27.1427 10.3862 27.0712 10.144 27.0712 9.89674C27.0712 9.64943 27.1427 9.4073 27.2773 9.19907C27.4119 8.99084 27.6039 8.82523 27.8306 8.72188L29.5978 7.94108C32.1094 6.82205 34.0924 4.79076 35.1383 2.26566L35.7635 0.777269Z" fill="#81626C"/>
</g>
<defs>
<clipPath id="clip0_317_416">
<rect width="50" height="52" fill="white"/>
</clipPath>
</defs>
</svg>
