<svg width="64" height="55" viewBox="0 0 64 55" fill="none" xmlns="http://www.w3.org/2000/svg">
<path d="M37.64 49.36L32 55L26.36 49.36C15.275 46.8 7 36.86 7 25C7 11.2 18.2 0 32 0C45.8 0 57 11.2 57 25C57 36.86 48.725 46.8 37.64 49.36ZM17.0575 33.54C20.7275 39.015 26.2375 42.5 32.4 42.5C38.5625 42.5 44.0725 39.0175 47.74 33.54C43.5791 29.6519 38.0948 27.4925 32.4 27.5C26.7044 27.4919 21.2191 29.6513 17.0575 33.54ZM32 22.5C33.9891 22.5 35.8968 21.7098 37.3033 20.3033C38.7098 18.8968 39.5 16.9891 39.5 15C39.5 13.0109 38.7098 11.1032 37.3033 9.6967C35.8968 8.29018 33.9891 7.5 32 7.5C30.0109 7.5 28.1032 8.29018 26.6967 9.6967C25.2902 11.1032 24.5 13.0109 24.5 15C24.5 16.9891 25.2902 18.8968 26.6967 20.3033C28.1032 21.7098 30.0109 22.5 32 22.5Z" fill="#81626C"/>
</svg>
