<svg width="48" height="48" viewBox="0 0 48 48" fill="none" xmlns="http://www.w3.org/2000/svg">
<path d="M24 1.5C11.5736 1.5 1.5 11.5736 1.5 24C1.5 36.4264 11.5736 46.5 24 46.5C36.4264 46.5 46.5 36.4264 46.5 24C46.5 11.5736 36.4264 1.5 24 1.5ZM37.7886 37.7886C34.3695 41.1974 29.8039 43.2112 24.9812 43.4376C20.1585 43.664 15.4242 42.0867 11.7009 39.0132C7.97755 35.9397 5.53187 31.59 4.84039 26.8118C4.14891 22.0335 5.26116 17.169 7.96042 13.166C10.6597 9.16307 14.7526 6.30842 19.4416 5.15834C24.1306 4.00825 29.0799 4.6451 33.325 6.94481C37.5702 9.24452 40.807 13.0423 42.405 17.5982C44.0029 22.1542 43.8474 27.1418 41.9688 31.5893C40.9898 33.9068 39.5701 36.0122 37.7886 37.7886Z" fill="#81626C"/>
<path d="M13.3423 22.5962L15.4637 24.7175L22.4999 17.6814V35.2499H25.4999V17.6814L32.5361 24.7175L34.6575 22.5962L23.9999 11.9387L13.3423 22.5962Z" fill="#81626C"/>
</svg>
