<svg width="120" height="120" viewBox="0 0 260 130" fill="none" xmlns="http://www.w3.org/2000/svg">
<path d="M108.771 80.9227C106.747 80.9227 105.082 80.5623 103.801 79.8674C102.52 79.1724 101.572 78.1944 100.957 76.9332C100.343 75.672 100.061 74.2306 100.061 72.5833C100.086 70.936 100.394 69.1858 100.983 67.3069L106.106 51.8379C106.644 50.2163 106.824 48.8522 106.696 47.6939C106.568 46.5357 106.081 45.6606 105.261 45.0428C104.441 44.4251 103.212 44.1162 101.623 44.1162C100.035 44.1162 98.3701 44.5281 96.6794 45.326C94.9886 46.1239 93.3491 47.2564 91.7096 48.6977C90.0701 50.1391 88.4818 51.8893 86.9448 53.897C85.6896 55.5185 84.5368 57.2945 83.4609 59.2249C82.9485 60.1515 82.5386 61.1296 82.2056 62.1334L76.8516 78.6577C76.6467 79.3526 76.2368 79.8674 75.6732 80.2277C75.1096 80.5881 74.213 80.7425 72.9834 80.7425C72.138 80.7425 71.3439 80.5623 70.5754 80.1762C69.8325 79.7902 69.6532 79.0952 70.0118 78.0914L82.4618 38.2735C82.8204 37.1925 83.5633 35.8798 84.0757 35.571C84.588 35.2364 84.7417 34.979 85.8433 34.9532C87.0729 34.9532 87.867 34.9018 88.7636 35.6224C89.3016 36.0343 90.1982 36.8322 89.6346 38.2221L86.996 47.3078C88.2257 45.7378 89.5322 44.3736 90.9155 43.1896C92.2988 42.0057 93.7334 41.0019 95.1679 40.1782C96.6025 39.3546 98.0883 38.7368 99.5741 38.325C101.06 37.9132 102.571 37.733 104.057 37.733C107.106 37.733 109.385 38.428 110.948 39.8179C112.511 41.2078 113.356 43.1639 113.561 45.6863C113.74 48.2087 113.305 51.1429 112.229 54.4632L107.823 68.0018C106.977 70.5757 106.773 72.3774 107.208 73.3555C107.669 74.3593 108.771 74.8483 110.538 74.8483C111.281 74.8483 111.819 75.1572 112.152 75.7749C112.485 76.3927 112.562 77.0876 112.434 77.8598C112.306 78.6319 111.922 79.3269 111.307 79.9446C110.692 80.5623 109.821 80.8712 108.694 80.8712L108.771 80.9227Z" fill="#C6AAA7"/>
<path d="M193.41 32.4309C196.494 32.4309 198.995 29.9187 198.995 26.8198C198.995 23.7209 196.494 21.2088 193.41 21.2088C190.326 21.2088 187.826 23.7209 187.826 26.8198C187.826 29.9187 190.326 32.4309 193.41 32.4309Z" fill="#938A8A"/>
<path d="M219.898 32.4309C222.983 32.4309 225.483 29.9187 225.483 26.8198C225.483 23.7209 222.983 21.2088 219.898 21.2088C216.814 21.2088 214.314 23.7209 214.314 26.8198C214.314 29.9187 216.814 32.4309 219.898 32.4309Z" fill="#938A8A"/>
<path d="M25.9759 80.9227C22.0821 80.9227 18.5213 80.2535 15.3191 78.915C12.117 77.5766 9.37591 75.6205 7.09597 73.0724C4.81604 70.5242 3.07407 67.4613 1.84444 63.8836C0.614814 60.3059 0 56.2907 0 51.8379C0 48.1315 0.409876 44.2964 1.22963 40.3069C2.04938 36.3431 3.30462 32.4051 4.94413 28.5443C6.60925 24.6835 8.63301 21.0286 11.041 17.5796C13.449 14.1306 16.2413 11.1191 19.4179 8.46805C22.5944 5.8427 26.1552 3.75786 30.0746 2.26501C33.9941 0.772163 38.2721 0 42.8576 0C46.7514 0 50.2866 0.669208 53.4888 2.00762C56.6653 3.34604 59.3807 5.27645 61.6094 7.79885C63.8381 10.3212 65.6057 13.3584 66.8354 16.9361C68.065 20.5138 68.6798 24.5033 68.6798 28.9046C68.6798 32.9199 68.2443 36.9866 67.3477 41.1048C66.4767 45.223 65.1959 49.1868 63.5051 53.0733C61.8144 56.9341 59.7394 60.5376 57.2801 63.9094C54.8209 67.2554 52.0286 70.2153 48.8777 72.7635C45.7268 75.3116 42.2428 77.2935 38.4258 78.7091C34.6089 80.1248 30.4589 80.8455 25.9503 80.8455L25.9759 80.9227ZM27.1799 74.0762C30.7663 74.0762 34.0965 73.4584 37.1706 72.1972C40.2447 70.936 43.0369 69.2115 45.5474 66.998C48.0579 64.7845 50.2866 62.2363 52.2848 59.3536C54.2573 56.4451 55.8968 53.3565 57.2289 50.0619C58.5354 46.7673 59.5344 43.4213 60.2261 40.0238C60.9178 36.652 61.2764 33.3317 61.2764 30.1144C61.2764 26.3565 60.8665 23.0362 60.0212 20.1277C59.2014 17.2192 57.9462 14.7998 56.3067 12.8436C54.6416 10.8875 52.5922 9.42039 50.1842 8.41658C47.7505 7.41276 44.9326 6.92373 41.7305 6.92373C38.2465 6.92373 34.9931 7.5672 31.9191 8.80266C28.845 10.0639 26.0527 11.8141 23.5166 14.0276C20.9805 16.2669 18.7262 18.815 16.7281 21.7235C14.7555 24.632 13.0648 27.7207 11.6815 30.9895C10.2981 34.2583 9.24782 37.5786 8.55615 40.9246C7.86449 44.2707 7.50585 47.5395 7.50585 50.7054C7.50585 54.4632 7.91572 57.7835 8.76109 60.692C9.58084 63.6005 10.8361 66.0199 12.4756 68.0275C14.1151 70.0094 16.1901 71.528 18.6493 72.5318C21.1086 73.5614 23.9521 74.0504 27.2311 74.0504L27.1799 74.0762Z" fill="#C6AAA7"/>
<path d="M134.644 80.7425C132.339 80.7425 130.366 80.2277 128.701 79.1724C127.061 78.1172 125.781 76.5986 124.884 74.6167C123.987 72.6348 123.552 70.2926 123.552 67.6157C123.552 65.2478 123.885 62.6996 124.551 59.9713C125.217 57.243 126.242 54.5404 127.599 51.9151C128.957 49.2897 130.673 46.8703 132.723 44.7082C134.772 42.5462 137.18 40.7959 139.973 39.509C142.739 38.2221 145.916 37.5786 149.425 37.5786C151.244 37.5786 153.012 37.836 154.702 38.3765C156.419 38.917 158.033 39.6634 159.595 40.6415L171.943 2.62536C172.327 1.54433 172.763 0.849385 173.275 0.54052C173.787 0.231654 174.556 0.0514832 175.555 0.0514832C177.194 0.0514832 178.27 0.308871 178.706 0.823646C179.141 1.33842 179.192 2.13632 178.834 3.19161L157.828 67.8731C157.034 70.447 156.906 72.2487 157.469 73.2268C158.033 74.2306 159.493 74.7196 161.85 74.7196C162.49 74.7196 162.951 75.0285 163.259 75.6462C163.54 76.264 163.643 76.9589 163.489 77.7311C163.335 78.5032 163.002 79.1982 162.413 79.8159C161.824 80.4336 161.03 80.7425 160.005 80.7425C158.135 80.7425 156.572 80.5109 155.317 80.0218C154.062 79.5328 153.089 78.8893 152.346 78.0399C151.628 77.2163 151.116 76.264 150.783 75.1829C150.45 74.1019 150.322 73.0209 150.373 71.8884L150.296 71.0905C148.477 73.5614 146.607 75.4918 144.686 76.8817C142.765 78.2716 140.946 79.2754 139.204 79.8674C137.462 80.4594 135.925 80.7425 134.593 80.7425H134.644ZM136.898 74.3078C138.769 74.3078 140.639 73.6901 142.509 72.5061C144.379 71.3221 146.249 69.5204 148.17 67.1782C150.066 64.836 151.91 62.0562 153.729 58.8388L157.905 45.9437C156.342 45.1973 154.907 44.6568 153.575 44.3736C152.243 44.0905 150.885 43.9361 149.579 43.9361C146.889 43.9361 144.532 44.4508 142.432 45.4547C140.357 46.4842 138.564 47.8484 137.103 49.5729C135.643 51.2974 134.414 53.1763 133.491 55.2097C132.544 57.243 131.877 59.2764 131.442 61.284C131.006 63.2916 130.802 65.1191 130.802 66.7149C130.802 68.3107 131.032 69.7521 131.493 70.8588C131.954 71.9656 132.646 72.815 133.568 73.407C134.49 73.999 135.618 74.3078 136.898 74.3078Z" fill="#C6AAA7"/>
<path d="M188.363 80.6653C185.494 80.6653 183.189 80.0218 181.472 78.7349C179.756 77.4479 178.731 75.6205 178.373 73.2268C178.04 70.8331 178.373 68.0276 179.372 64.8102L187.313 40.4871C187.697 39.4061 188.133 38.7111 188.645 38.4022C189.158 38.0934 189.926 37.9132 190.925 37.9132C192.565 37.9132 193.641 38.1706 194.076 38.6854C194.537 39.2001 194.563 39.998 194.204 41.0533L186.263 65.2993C185.622 67.3326 185.315 69.0314 185.366 70.3698C185.417 71.7082 185.879 72.712 186.775 73.3812C187.672 74.0504 189.004 74.385 190.823 74.385C192.257 74.385 193.769 73.9732 195.357 73.1753C196.945 72.3774 198.534 71.2192 200.122 69.7006C201.736 68.2077 203.298 66.406 204.81 64.3469C206.347 62.2878 207.704 59.9971 208.934 57.4489L214.467 40.4613C214.852 39.3803 215.287 38.6854 215.8 38.3765C216.312 38.0676 217.08 37.8875 218.079 37.8875C219.745 37.8875 220.795 38.1449 221.256 38.6596C221.717 39.1744 221.743 39.9723 221.384 41.0276L212.725 67.8474C211.88 70.4213 211.675 72.223 212.162 73.2011C212.649 74.2049 213.75 74.6939 215.441 74.6939C216.184 74.6939 216.722 75.0028 217.055 75.6205C217.388 76.2382 217.465 76.9332 217.337 77.7053C217.208 78.4775 216.824 79.1724 216.158 79.7902C215.518 80.4079 214.647 80.7168 213.52 80.7168C211.957 80.7168 210.65 80.4851 209.549 80.0218C208.447 79.5585 207.576 78.9408 206.936 78.1429C206.296 77.345 205.834 76.4184 205.578 75.3631C205.322 74.3078 205.168 73.1753 205.168 71.9399L205.322 70.5757C204.092 72.1715 202.786 73.6129 201.403 74.8483C200.019 76.0838 198.585 77.1391 197.125 77.9885C195.664 78.8378 194.179 79.507 192.718 79.9703C191.258 80.4336 189.798 80.6653 188.338 80.6653H188.363Z" fill="#C6AAA7"/>
<path d="M236.37 78.1944C231.887 76.2125 229.582 73.9217 228.121 71.528C226.764 69.0571 225.406 66.7149 230.709 63.9608C254.712 51.1944 235.909 30.7578 250.998 7.82459C251.638 6.58913 253.534 3.47473 253.995 2.9857C254.482 2.49666 254.789 1.75024 255.481 1.46711C256.531 0.978075 257.684 1.31268 258.145 1.75024C258.555 2.1878 258.76 3.06291 258.529 4.34985C242.544 29.9599 261.834 53.4594 241.724 68.5938C240.443 69.7521 239.752 70.7301 239.752 71.528C239.752 72.3517 240.52 72.9951 242.057 73.4842C243.21 73.8445 244.337 73.9989 245.439 73.9475C246.54 73.896 247.642 73.6901 248.743 73.3555C249.819 73.0209 250.767 72.6605 251.561 72.2745C252.407 71.9913 256.377 69.9065 256.813 69.8807C257.402 69.8807 258.119 70.344 258.913 71.2192C259.733 72.12 260.066 72.9179 259.989 73.5099C259.887 74.1276 259.605 74.6939 259.093 75.1829C258.299 76.2125 252.74 78.8636 250.306 79.3269C248.154 79.8674 245.772 80.0218 243.364 79.8674C240.93 79.713 238.625 79.121 236.447 78.1686L236.37 78.1944Z" fill="#C6AAA7"/>
<path d="M111.298 120.59C111.117 120.59 110.91 120.59 110.652 120.641C110.394 120.667 110.162 120.719 109.929 120.744C109.697 120.77 109.491 120.822 109.284 120.847C109.103 120.873 108.974 120.899 108.897 120.899C108.768 120.899 108.535 120.873 108.251 120.796C107.967 120.719 107.658 120.641 107.374 120.564C107.064 120.461 106.754 120.358 106.47 120.255C106.186 120.152 105.98 120.075 105.851 119.998C105.851 119.766 105.877 119.586 105.928 119.432C105.98 119.277 106.083 119.174 106.212 119.174C106.444 119.174 106.987 119.226 107.89 119.329C108.794 119.432 109.904 119.483 111.272 119.483H116.744C116.744 119.252 116.719 118.994 116.719 118.711V116.369C115.118 116.24 113.905 115.777 113.001 114.927C112.098 114.104 111.633 112.997 111.633 111.659C111.633 110.938 111.762 110.294 112.046 109.728C112.33 109.162 112.717 108.647 113.234 108.261C113.75 107.849 114.344 107.54 115.066 107.309C115.789 107.077 116.589 106.974 117.467 106.974C118.345 106.974 119.145 107.077 119.868 107.309C120.591 107.54 121.21 107.849 121.701 108.261C122.217 108.673 122.604 109.162 122.888 109.728C123.172 110.294 123.301 110.964 123.301 111.659C123.301 112.971 122.862 114.052 121.959 114.902C121.055 115.751 119.842 116.214 118.319 116.343V117.681C118.319 117.887 118.319 118.171 118.293 118.505C118.293 118.865 118.216 119.174 118.19 119.457H124.334C124.566 119.457 124.824 119.457 125.108 119.406C125.392 119.355 125.65 119.329 125.934 119.303C126.218 119.277 126.451 119.226 126.657 119.2C126.864 119.174 127.044 119.149 127.199 119.149C127.586 119.149 127.974 119.174 128.335 119.226C128.696 119.277 128.929 119.38 129.006 119.535C129.084 119.663 129.135 119.818 129.135 120.049C129.135 120.281 129.084 120.461 129.006 120.59H111.323H111.298ZM113.802 129.521C112.95 129.521 112.356 129.341 111.995 128.955C111.633 128.569 111.452 128.054 111.452 127.411V124.554C111.452 124.296 111.401 124.168 111.272 124.142L110.213 123.782C110.213 123.601 110.265 123.421 110.317 123.241C110.368 123.061 110.471 122.984 110.601 122.984C110.884 122.984 111.168 122.984 111.504 122.984C111.814 122.984 112.098 123.009 112.33 123.035C112.537 123.035 112.717 123.087 112.846 123.19C112.975 123.267 113.053 123.37 113.053 123.498C113.053 123.576 113.053 123.704 113.053 123.885C113.053 124.065 113.053 124.219 113.053 124.322V127.462C113.053 127.797 113.13 128.028 113.311 128.157C113.492 128.286 113.802 128.337 114.24 128.337H121.03C121.546 128.337 122.062 128.286 122.578 128.183C123.095 128.08 123.482 128.028 123.74 128.028C124.127 128.028 124.489 128.028 124.798 128.054C125.108 128.08 125.315 128.157 125.444 128.26C125.547 128.389 125.599 128.569 125.599 128.852C125.599 129.135 125.521 129.341 125.34 129.47H113.853L113.802 129.521ZM117.493 115.185C118.138 115.185 118.706 115.108 119.248 114.927C119.79 114.773 120.229 114.541 120.642 114.232C121.03 113.924 121.339 113.563 121.546 113.151C121.752 112.74 121.856 112.225 121.856 111.684C121.856 111.144 121.752 110.655 121.546 110.217C121.339 109.78 121.03 109.419 120.642 109.11C120.255 108.802 119.79 108.57 119.248 108.416C118.706 108.261 118.138 108.184 117.493 108.184C116.848 108.184 116.28 108.261 115.738 108.416C115.195 108.57 114.757 108.802 114.344 109.11C113.956 109.419 113.647 109.78 113.44 110.217C113.234 110.655 113.13 111.144 113.13 111.684C113.13 112.225 113.234 112.714 113.44 113.151C113.647 113.589 113.956 113.949 114.344 114.232C114.731 114.541 115.195 114.773 115.738 114.927C116.28 115.082 116.848 115.185 117.493 115.185Z" fill="#938A8A"/>
<path d="M135.692 117.81C135.434 117.836 135.202 117.887 134.969 117.913C134.737 117.939 134.53 117.99 134.324 118.016C134.143 118.042 134.014 118.068 133.937 118.068C133.808 118.068 133.575 118.042 133.291 117.965C133.007 117.887 132.698 117.81 132.414 117.707C132.104 117.604 131.794 117.501 131.51 117.398C131.226 117.295 131.02 117.218 130.891 117.141C130.891 116.909 130.916 116.729 130.968 116.549C131.02 116.395 131.123 116.292 131.252 116.292C131.484 116.292 132.027 116.343 132.93 116.446C133.834 116.549 134.944 116.6 136.312 116.6H149.348C149.58 116.6 149.838 116.6 150.122 116.549C150.406 116.523 150.664 116.472 150.948 116.446C151.232 116.42 151.465 116.369 151.671 116.343C151.878 116.317 152.058 116.292 152.213 116.292C152.601 116.292 152.988 116.317 153.349 116.369C153.711 116.42 153.943 116.523 154.02 116.678C154.098 116.806 154.149 116.961 154.149 117.192C154.149 117.424 154.098 117.604 154.02 117.733H143.436V118.763C143.436 119.509 143.307 120.127 143.049 120.59H146.044C146.276 120.59 146.534 120.59 146.87 120.538C147.205 120.487 147.438 120.487 147.567 120.487C147.696 120.487 147.902 120.487 148.186 120.487C148.47 120.487 148.703 120.538 148.883 120.564C149.064 120.59 149.193 120.667 149.27 120.744C149.322 120.822 149.374 120.899 149.374 121.002C149.374 121.079 149.374 121.233 149.296 121.465C149.245 121.697 149.193 121.98 149.167 122.289C149.116 122.598 149.064 122.906 149.038 123.215C148.986 123.524 148.961 123.807 148.961 124.013C148.961 124.013 148.961 124.09 148.961 124.219C148.961 124.322 148.935 124.399 148.935 124.425C149.322 124.502 149.503 124.682 149.503 124.966C149.503 125.12 149.451 125.249 149.348 125.352C149.245 125.455 149.038 125.532 148.754 125.532H138.015V127.926C138.015 128.183 138.093 128.363 138.222 128.466C138.351 128.569 138.532 128.62 138.712 128.62H146.302C146.818 128.62 147.334 128.569 147.851 128.466C148.367 128.363 148.754 128.312 149.012 128.312C149.4 128.312 149.761 128.312 150.097 128.363C150.432 128.363 150.639 128.466 150.742 128.595C150.845 128.698 150.897 128.878 150.897 129.161C150.897 129.418 150.819 129.624 150.69 129.779H138.764C138.015 129.779 137.422 129.65 137.034 129.393C136.647 129.135 136.441 128.698 136.441 128.054V125.815C136.441 125.815 136.441 125.66 136.441 125.583C136.441 125.506 136.363 125.455 136.286 125.429L135.46 125.043C135.46 125.043 135.486 124.837 135.563 124.657C135.641 124.477 135.718 124.399 135.795 124.399C135.873 124.399 136.002 124.399 136.208 124.399C136.389 124.399 136.57 124.425 136.776 124.451C136.983 124.477 137.189 124.451 137.37 124.477C137.551 124.477 137.706 124.502 137.835 124.502H147.593L147.696 121.722H139.255C138.996 121.722 138.712 121.748 138.377 121.8C138.041 121.851 137.809 121.877 137.654 121.877C137.499 121.877 137.318 121.851 137.086 121.8C136.854 121.748 136.621 121.697 136.363 121.62C136.105 121.568 135.899 121.491 135.692 121.439C135.486 121.388 135.357 121.311 135.279 121.259C135.279 121.002 135.279 120.796 135.357 120.667C135.408 120.538 135.46 120.461 135.511 120.461C135.666 120.461 135.899 120.487 136.208 120.513C136.518 120.513 136.828 120.538 137.189 120.538C137.525 120.538 137.886 120.538 138.274 120.564C138.661 120.564 138.996 120.564 139.306 120.564H142.223C142.146 120.333 142.068 120.075 142.042 119.792C142.017 119.509 141.991 119.2 141.991 118.865V117.707H136.467C136.286 117.707 136.079 117.707 135.821 117.759L135.692 117.81ZM136.467 113.898C136.131 113.641 135.95 113.151 135.924 112.457V108.905C135.924 108.699 135.821 108.518 135.641 108.364C135.615 108.338 135.486 108.261 135.331 108.184C135.15 108.107 134.944 108.004 134.685 107.926C134.685 107.746 134.685 107.566 134.789 107.36C134.892 107.154 134.969 107.051 135.047 107.051C135.15 107.051 135.305 107.051 135.486 107.051C135.692 107.051 135.899 107.051 136.131 107.103C136.363 107.103 136.57 107.154 136.776 107.154C136.983 107.18 137.164 107.206 137.293 107.206H144.959C145.218 107.206 145.476 107.206 145.76 107.154C146.044 107.129 146.302 107.077 146.56 107.051C146.818 107 147.05 106.974 147.283 106.948C147.489 106.948 147.67 106.923 147.825 106.923C148.264 106.948 148.599 106.974 148.806 106.974C149.012 106.974 149.167 107.051 149.296 107.18C149.374 107.309 149.425 107.489 149.425 107.746C149.425 108.004 149.348 108.21 149.193 108.338H137.448V112.302C137.448 112.637 137.551 112.843 137.731 112.971C137.912 113.1 138.144 113.126 138.377 113.126H144.959C145.218 113.126 145.502 113.126 145.811 113.074C146.121 113.023 146.405 112.997 146.689 112.946C146.973 112.894 147.231 112.868 147.463 112.843C147.696 112.817 147.876 112.791 148.031 112.791C148.47 112.791 148.806 112.817 149.038 112.843C149.27 112.843 149.451 112.946 149.554 113.074C149.632 113.203 149.683 113.383 149.683 113.666C149.683 113.949 149.606 114.155 149.451 114.284H138.196C137.396 114.284 136.828 114.181 136.492 113.898H136.467Z" fill="#938A8A"/>
</svg>
