<svg width="70" height="70" viewBox="0 0 70 70" fill="none" xmlns="http://www.w3.org/2000/svg">
<path d="M0 35C0 44.2826 3.68749 53.185 10.2513 59.7487C16.815 66.3125 25.7174 70 35 70C44.2826 70 53.185 66.3125 59.7487 59.7487C66.3125 53.185 70 44.2826 70 35C70 25.7174 66.3125 16.815 59.7487 10.2513C53.185 3.68749 44.2826 0 35 0C25.7174 0 16.815 3.68749 10.2513 10.2513C3.68749 16.815 0 25.7174 0 35Z" fill="#D5B0BA"/>
<path d="M42.3953 42.3953C39.6604 45.1302 35.9511 46.6667 32.0833 46.6667C28.2156 46.6667 24.5063 45.1302 21.7714 42.3953C19.0365 39.6604 17.5 35.9511 17.5 32.0833C17.5 28.2156 19.0365 24.5063 21.7714 21.7714C24.5063 19.0365 28.2156 17.5 32.0833 17.5C35.9511 17.5 39.6604 19.0365 42.3953 21.7714C45.1302 24.5063 46.6667 28.2156 46.6667 32.0833C46.6667 35.9511 45.1302 39.6604 42.3953 42.3953ZM42.3953 42.3953L52.5 52.5" stroke="white" stroke-width="2" stroke-linecap="round" stroke-linejoin="round"/>
</svg>
